<svg width="604" height="398" viewBox="0 0 604 398" fill="none" xmlns="http://www.w3.org/2000/svg">
<g clip-path="url(#clip0_65_1706)">
<path d="M0 0H604V331C604 368.003 574.003 398 537 398H67C29.9969 398 0 368.003 0 331V0Z" fill="white" fill-opacity="0.01"/>
<path d="M0.5 0.5H603.5V331C603.5 367.727 573.727 397.5 537 397.5H67C30.2731 397.5 0.5 367.727 0.5 331V0.5Z" stroke="white" stroke-opacity="0.1"/>
<path d="M82.9998 120.664C104.998 120.664 122.832 102.83 122.832 80.8318C122.832 58.8333 104.998 41 82.9998 41C61.0013 41 43.168 58.8333 43.168 80.8318C43.168 102.83 61.0013 120.664 82.9998 120.664Z" fill="#19489e"/>
<path d="M82.9994 87.449C82.7595 87.449 82.5347 87.4126 82.3248 87.34C82.1149 87.2674 81.92 87.1426 81.74 86.9657L75.2632 80.6395C74.9034 80.288 74.7307 79.878 74.7451 79.4094C74.7594 78.9408 74.9322 78.5308 75.2632 78.1793C75.623 77.8278 76.0506 77.6451 76.546 77.631C77.0413 77.617 77.4683 77.7851 77.827 78.1354L81.2003 81.4303V68.8657C81.2003 68.3678 81.373 67.9507 81.7185 67.6145C82.0639 67.2783 82.4909 67.1096 82.9994 67.1084C83.508 67.1072 83.9356 67.2759 84.2822 67.6145C84.6288 67.9531 84.801 68.3701 84.7986 68.8657V81.4303L88.1719 78.1354C88.5317 77.7839 88.9593 77.6152 89.4547 77.6293C89.95 77.6433 90.377 77.8267 90.7357 78.1793C91.0655 78.5308 91.2382 78.9408 91.2538 79.4094C91.2694 79.878 91.0967 80.288 90.7357 80.6395L84.2588 86.9657C84.0789 87.1414 83.884 87.2662 83.6741 87.34C83.4642 87.4138 83.2393 87.4501 82.9994 87.449ZM72.2047 95.2249C71.2152 95.2249 70.3684 94.8811 69.6643 94.1934C68.9603 93.5057 68.6076 92.6781 68.6064 91.7104V88.1958C68.6064 87.6979 68.7792 87.2809 69.1246 86.9446C69.47 86.6084 69.897 86.4397 70.4056 86.4385C70.9141 86.4374 71.3417 86.6061 71.6883 86.9446C72.035 87.2832 72.2071 87.7003 72.2047 88.1958V91.7104H93.7942V88.1958C93.7942 87.6979 93.9669 87.2809 94.3123 86.9446C94.6578 86.6084 95.0847 86.4397 95.5933 86.4385C96.1018 86.4374 96.5294 86.6061 96.8761 86.9446C97.2227 87.2832 97.3948 87.7003 97.3924 88.1958V91.7104C97.3924 92.6769 97.0404 93.5046 96.3363 94.1934C95.6323 94.8823 94.7849 95.2261 93.7942 95.2249H72.2047Z" fill="white"/>
<path d="M542 100H157C151.477 100 147 104.477 147 110C147 115.523 151.477 120 157 120H542C547.523 120 552 115.523 552 110C552 104.477 547.523 100 542 100Z" fill="#2C2C2C"/>
<path d="M82.8318 234.664C104.83 234.664 122.664 216.83 122.664 194.832C122.664 172.834 104.83 155 82.8318 155C60.8333 155 43 172.834 43 194.832C43 216.83 60.8333 234.664 82.8318 234.664Z" fill="#19489e"/>
<path d="M82.8315 201.449C82.5916 201.449 82.3667 201.413 82.1568 201.34C81.9469 201.267 81.752 201.143 81.5721 200.966L75.0952 194.639C74.7354 194.288 74.5627 193.878 74.5771 193.409C74.5915 192.941 74.7642 192.531 75.0952 192.179C75.4551 191.828 75.8826 191.645 76.378 191.631C76.8734 191.617 77.3004 191.785 77.659 192.135L81.0323 195.43V182.866C81.0323 182.368 81.2051 181.951 81.5505 181.615C81.8959 181.278 82.3229 181.11 82.8315 181.108C83.34 181.107 83.7676 181.276 84.1142 181.615C84.4609 181.953 84.633 182.37 84.6306 182.866V195.43L88.0039 192.135C88.3638 191.784 88.7914 191.615 89.2867 191.629C89.7821 191.643 90.2091 191.827 90.5677 192.179C90.8975 192.531 91.0702 192.941 91.0858 193.409C91.1014 193.878 90.9287 194.288 90.5677 194.639L84.0908 200.966C83.9109 201.141 83.716 201.266 83.5061 201.34C83.2962 201.414 83.0713 201.45 82.8315 201.449ZM72.0367 209.225C71.0472 209.225 70.2004 208.881 69.4964 208.193C68.7923 207.506 68.4397 206.678 68.4385 205.71V202.196C68.4385 201.698 68.6112 201.281 68.9566 200.945C69.3021 200.608 69.729 200.44 70.2376 200.439C70.7462 200.437 71.1737 200.606 71.5204 200.945C71.867 201.283 72.0391 201.7 72.0367 202.196V205.71H93.6262V202.196C93.6262 201.698 93.7989 201.281 94.1444 200.945C94.4898 200.608 94.9168 200.44 95.4253 200.439C95.9339 200.437 96.3615 200.606 96.7081 200.945C97.0547 201.283 97.2268 201.7 97.2244 202.196V205.71C97.2244 206.677 96.8724 207.505 96.1684 208.193C95.4643 208.882 94.6169 209.226 93.6262 209.225H72.0367Z" fill="white"/>
<path d="M541.832 214H156.832C151.309 214 146.832 218.477 146.832 224C146.832 229.523 151.309 234 156.832 234H541.832C547.355 234 551.832 229.523 551.832 224C551.832 218.477 547.355 214 541.832 214Z" fill="#2C2C2C"/>
<path d="M82.8318 348.664C104.83 348.664 122.664 330.83 122.664 308.832C122.664 286.834 104.83 269 82.8318 269C60.8333 269 43 286.834 43 308.832C43 330.83 60.8333 348.664 82.8318 348.664Z" fill="#19489e"/>
<path d="M82.8315 315.449C82.5916 315.449 82.3667 315.413 82.1568 315.34C81.9469 315.267 81.752 315.143 81.5721 314.966L75.0952 308.639C74.7354 308.288 74.5627 307.878 74.5771 307.409C74.5915 306.941 74.7642 306.531 75.0952 306.179C75.4551 305.828 75.8826 305.645 76.378 305.631C76.8734 305.617 77.3004 305.785 77.659 306.135L81.0323 309.43V296.866C81.0323 296.368 81.2051 295.951 81.5505 295.615C81.8959 295.278 82.3229 295.11 82.8315 295.108C83.34 295.107 83.7676 295.276 84.1142 295.615C84.4609 295.953 84.633 296.37 84.6306 296.866V309.43L88.0039 306.135C88.3638 305.784 88.7914 305.615 89.2867 305.629C89.7821 305.643 90.2091 305.827 90.5677 306.179C90.8975 306.531 91.0702 306.941 91.0858 307.409C91.1014 307.878 90.9287 308.288 90.5677 308.639L84.0908 314.966C83.9109 315.141 83.716 315.266 83.5061 315.34C83.2962 315.414 83.0713 315.45 82.8315 315.449ZM72.0367 323.225C71.0472 323.225 70.2004 322.881 69.4964 322.193C68.7923 321.506 68.4397 320.678 68.4385 319.71V316.196C68.4385 315.698 68.6112 315.281 68.9566 314.945C69.3021 314.608 69.729 314.44 70.2376 314.439C70.7462 314.437 71.1737 314.606 71.5204 314.945C71.867 315.283 72.0391 315.7 72.0367 316.196V319.71H93.6262V316.196C93.6262 315.698 93.7989 315.281 94.1444 314.945C94.4898 314.608 94.9168 314.44 95.4253 314.439C95.9339 314.437 96.3615 314.606 96.7081 314.945C97.0547 315.283 97.2268 315.7 97.2244 316.196V319.71C97.2244 320.677 96.8724 321.505 96.1684 322.193C95.4643 322.882 94.6169 323.226 93.6262 323.225H72.0367Z" fill="white"/>
<path d="M541.832 328H156.832C151.309 328 146.832 332.477 146.832 338C146.832 343.523 151.309 348 156.832 348H541.832C547.355 348 551.832 343.523 551.832 338C551.832 332.477 547.355 328 541.832 328Z" fill="#2C2C2C"/>
<path d="M151.818 58.7273H155.182L163.091 78.0455H163.364L171.273 58.7273H174.636V82H172V64.3182H171.773L164.5 82H161.955L154.682 64.3182H154.455V82H151.818V58.7273ZM181.651 88.5455C181.196 88.5455 180.791 88.5076 180.435 88.4318C180.079 88.3636 179.832 88.2955 179.696 88.2273L180.378 85.8636C181.029 86.0303 181.605 86.0909 182.105 86.0455C182.605 86 183.048 85.7765 183.435 85.375C183.829 84.9811 184.188 84.3409 184.514 83.4545L185.014 82.0909L178.56 64.5455H181.469L186.287 78.4545H186.469L191.287 64.5455H194.196L186.787 84.5455C186.454 85.447 186.041 86.1932 185.548 86.7841C185.056 87.3826 184.484 87.8258 183.832 88.1136C183.188 88.4015 182.461 88.5455 181.651 88.5455ZM207.25 82V84.5H192.705V82H207.25ZM210.037 82V58.7273H217.901C219.719 58.7273 221.211 59.0379 222.378 59.6591C223.545 60.2727 224.408 61.1174 224.969 62.1932C225.529 63.2689 225.81 64.4924 225.81 65.8636C225.81 67.2348 225.529 68.4508 224.969 69.5114C224.408 70.572 223.548 71.4053 222.389 72.0114C221.23 72.6098 219.749 72.9091 217.946 72.9091H211.582V70.3636H217.855C219.098 70.3636 220.098 70.1818 220.855 69.8182C221.62 69.4545 222.173 68.9394 222.514 68.2727C222.863 67.5985 223.037 66.7955 223.037 65.8636C223.037 64.9318 222.863 64.1174 222.514 63.4205C222.166 62.7235 221.609 62.1856 220.844 61.8068C220.079 61.4205 219.067 61.2273 217.81 61.2273H212.855V82H210.037ZM220.991 71.5455L226.719 82H223.446L217.81 71.5455H220.991ZM237.273 82.3636C235.591 82.3636 234.14 81.9924 232.92 81.25C231.708 80.5 230.773 79.4545 230.114 78.1136C229.462 76.7652 229.136 75.197 229.136 73.4091C229.136 71.6212 229.462 70.0455 230.114 68.6818C230.773 67.3106 231.689 66.2424 232.864 65.4773C234.045 64.7045 235.424 64.3182 237 64.3182C237.909 64.3182 238.807 64.4697 239.693 64.7727C240.58 65.0758 241.386 65.5682 242.114 66.25C242.841 66.9242 243.42 67.8182 243.852 68.9318C244.284 70.0455 244.5 71.4167 244.5 73.0455V74.1818H231.045V71.8636H241.773C241.773 70.8788 241.576 70 241.182 69.2273C240.795 68.4545 240.242 67.8447 239.523 67.3977C238.811 66.9508 237.97 66.7273 237 66.7273C235.932 66.7273 235.008 66.9924 234.227 67.5227C233.455 68.0455 232.86 68.7273 232.443 69.5682C232.027 70.4091 231.818 71.3106 231.818 72.2727V73.8182C231.818 75.1364 232.045 76.2538 232.5 77.1705C232.962 78.0795 233.602 78.7727 234.42 79.25C235.239 79.7197 236.189 79.9545 237.273 79.9545C237.977 79.9545 238.614 79.8561 239.182 79.6591C239.758 79.4545 240.254 79.1515 240.67 78.75C241.087 78.3409 241.409 77.8333 241.636 77.2273L244.227 77.9545C243.955 78.8333 243.496 79.6061 242.852 80.2727C242.208 80.9318 241.413 81.447 240.466 81.8182C239.519 82.1818 238.455 82.3636 237.273 82.3636ZM260.943 68.4545L258.534 69.1364C258.383 68.7348 258.159 68.3447 257.864 67.9659C257.576 67.5795 257.182 67.2614 256.682 67.0114C256.182 66.7614 255.542 66.6364 254.761 66.6364C253.693 66.6364 252.803 66.8826 252.091 67.375C251.386 67.8598 251.034 68.4773 251.034 69.2273C251.034 69.8939 251.277 70.4205 251.761 70.8068C252.246 71.1932 253.004 71.5152 254.034 71.7727L256.625 72.4091C258.186 72.7879 259.348 73.3674 260.114 74.1477C260.879 74.9205 261.261 75.9167 261.261 77.1364C261.261 78.1364 260.973 79.0303 260.398 79.8182C259.83 80.6061 259.034 81.2273 258.011 81.6818C256.989 82.1364 255.799 82.3636 254.443 82.3636C252.663 82.3636 251.189 81.9773 250.023 81.2045C248.856 80.4318 248.117 79.303 247.807 77.8182L250.352 77.1818C250.595 78.1212 251.053 78.8258 251.727 79.2955C252.409 79.7652 253.299 80 254.398 80C255.648 80 256.64 79.7348 257.375 79.2045C258.117 78.6667 258.489 78.0227 258.489 77.2727C258.489 76.6667 258.277 76.1591 257.852 75.75C257.428 75.3333 256.777 75.0227 255.898 74.8182L252.989 74.1364C251.39 73.7576 250.216 73.1705 249.466 72.375C248.723 71.572 248.352 70.5682 248.352 69.3636C248.352 68.3788 248.629 67.5076 249.182 66.75C249.742 65.9924 250.504 65.3977 251.466 64.9659C252.436 64.5341 253.534 64.3182 254.761 64.3182C256.489 64.3182 257.845 64.697 258.83 65.4545C259.822 66.2121 260.527 67.2121 260.943 68.4545ZM276.298 74.8636V64.5455H278.98V82H276.298V79.0455H276.116C275.707 79.9318 275.071 80.6856 274.207 81.3068C273.344 81.9205 272.253 82.2273 270.935 82.2273C269.844 82.2273 268.874 81.9886 268.026 81.5114C267.177 81.0265 266.51 80.2992 266.026 79.3295C265.541 78.3523 265.298 77.1212 265.298 75.6364V64.5455H267.98V75.4545C267.98 76.7273 268.336 77.7424 269.048 78.5C269.768 79.2576 270.685 79.6364 271.798 79.6364C272.465 79.6364 273.143 79.4659 273.832 79.125C274.529 78.7841 275.113 78.2614 275.582 77.5568C276.06 76.8523 276.298 75.9545 276.298 74.8636ZM283.892 82V64.5455H286.483V67.2727H286.71C287.074 66.3409 287.661 65.6174 288.472 65.1023C289.282 64.5795 290.256 64.3182 291.392 64.3182C292.544 64.3182 293.502 64.5795 294.267 65.1023C295.04 65.6174 295.642 66.3409 296.074 67.2727H296.256C296.703 66.3712 297.373 65.6553 298.267 65.125C299.161 64.5871 300.233 64.3182 301.483 64.3182C303.044 64.3182 304.32 64.8068 305.312 65.7841C306.305 66.7538 306.801 68.2652 306.801 70.3182V82H304.119V70.3182C304.119 69.0303 303.767 68.1098 303.062 67.5568C302.358 67.0038 301.528 66.7273 300.574 66.7273C299.347 66.7273 298.396 67.0985 297.722 67.8409C297.047 68.5758 296.71 69.5076 296.71 70.6364V82H293.983V70.0455C293.983 69.053 293.661 68.2538 293.017 67.6477C292.373 67.0341 291.544 66.7273 290.528 66.7273C289.831 66.7273 289.18 66.9129 288.574 67.2841C287.975 67.6553 287.491 68.1705 287.119 68.8295C286.756 69.4811 286.574 70.2348 286.574 71.0909V82H283.892ZM319.023 82.3636C317.341 82.3636 315.89 81.9924 314.67 81.25C313.458 80.5 312.523 79.4545 311.864 78.1136C311.212 76.7652 310.886 75.197 310.886 73.4091C310.886 71.6212 311.212 70.0455 311.864 68.6818C312.523 67.3106 313.439 66.2424 314.614 65.4773C315.795 64.7045 317.174 64.3182 318.75 64.3182C319.659 64.3182 320.557 64.4697 321.443 64.7727C322.33 65.0758 323.136 65.5682 323.864 66.25C324.591 66.9242 325.17 67.8182 325.602 68.9318C326.034 70.0455 326.25 71.4167 326.25 73.0455V74.1818H312.795V71.8636H323.523C323.523 70.8788 323.326 70 322.932 69.2273C322.545 68.4545 321.992 67.8447 321.273 67.3977C320.561 66.9508 319.72 66.7273 318.75 66.7273C317.682 66.7273 316.758 66.9924 315.977 67.5227C315.205 68.0455 314.61 68.7273 314.193 69.5682C313.777 70.4091 313.568 71.3106 313.568 72.2727V73.8182C313.568 75.1364 313.795 76.2538 314.25 77.1705C314.712 78.0795 315.352 78.7727 316.17 79.25C316.989 79.7197 317.939 79.9545 319.023 79.9545C319.727 79.9545 320.364 79.8561 320.932 79.6591C321.508 79.4545 322.004 79.1515 322.42 78.75C322.837 78.3409 323.159 77.8333 323.386 77.2273L325.977 77.9545C325.705 78.8333 325.246 79.6061 324.602 80.2727C323.958 80.9318 323.163 81.447 322.216 81.8182C321.269 82.1818 320.205 82.3636 319.023 82.3636ZM332.284 82.1818C331.723 82.1818 331.242 81.9811 330.841 81.5795C330.439 81.178 330.239 80.697 330.239 80.1364C330.239 79.5758 330.439 79.0947 330.841 78.6932C331.242 78.2917 331.723 78.0909 332.284 78.0909C332.845 78.0909 333.326 78.2917 333.727 78.6932C334.129 79.0947 334.33 79.5758 334.33 80.1364C334.33 80.5076 334.235 80.8485 334.045 81.1591C333.864 81.4697 333.617 81.7197 333.307 81.9091C333.004 82.0909 332.663 82.1818 332.284 82.1818ZM339.142 88.5455V64.5455H341.733V67.3182H342.051C342.248 67.0152 342.521 66.6288 342.869 66.1591C343.225 65.6818 343.733 65.2576 344.392 64.8864C345.059 64.5076 345.96 64.3182 347.097 64.3182C348.566 64.3182 349.862 64.6856 350.983 65.4205C352.104 66.1553 352.979 67.197 353.608 68.5455C354.237 69.8939 354.551 71.4848 354.551 73.3182C354.551 75.1667 354.237 76.7689 353.608 78.125C352.979 79.4735 352.108 80.5189 350.994 81.2614C349.881 81.9962 348.597 82.3636 347.142 82.3636C346.021 82.3636 345.123 82.178 344.449 81.8068C343.775 81.428 343.256 81 342.892 80.5227C342.528 80.0379 342.248 79.6364 342.051 79.3182H341.824V88.5455H339.142ZM341.778 73.2727C341.778 74.5909 341.972 75.7538 342.358 76.7614C342.744 77.7614 343.309 78.5455 344.051 79.1136C344.794 79.6742 345.703 79.9545 346.778 79.9545C347.9 79.9545 348.835 79.6591 349.585 79.0682C350.343 78.4697 350.911 77.6667 351.29 76.6591C351.676 75.6439 351.869 74.5152 351.869 73.2727C351.869 72.0455 351.68 70.9394 351.301 69.9545C350.93 68.9621 350.366 68.178 349.608 67.6023C348.858 67.0189 347.915 66.7273 346.778 66.7273C345.688 66.7273 344.771 67.0038 344.028 67.5568C343.286 68.1023 342.725 68.8674 342.347 69.8523C341.968 70.8295 341.778 71.9697 341.778 73.2727ZM365.233 82.3636C363.778 82.3636 362.494 81.9962 361.381 81.2614C360.267 80.5189 359.396 79.4735 358.767 78.125C358.138 76.7689 357.824 75.1667 357.824 73.3182C357.824 71.4848 358.138 69.8939 358.767 68.5455C359.396 67.197 360.271 66.1553 361.392 65.4205C362.513 64.6856 363.809 64.3182 365.278 64.3182C366.415 64.3182 367.313 64.5076 367.972 64.8864C368.638 65.2576 369.146 65.6818 369.494 66.1591C369.85 66.6288 370.127 67.0152 370.324 67.3182H370.551V58.7273H373.233V82H370.642V79.3182H370.324C370.127 79.6364 369.847 80.0379 369.483 80.5227C369.119 81 368.6 81.428 367.926 81.8068C367.252 82.178 366.354 82.3636 365.233 82.3636ZM365.597 79.9545C366.672 79.9545 367.581 79.6742 368.324 79.1136C369.066 78.5455 369.631 77.7614 370.017 76.7614C370.403 75.7538 370.597 74.5909 370.597 73.2727C370.597 71.9697 370.407 70.8295 370.028 69.8523C369.65 68.8674 369.089 68.1023 368.347 67.5568C367.604 67.0038 366.688 66.7273 365.597 66.7273C364.46 66.7273 363.513 67.0189 362.756 67.6023C362.006 68.178 361.441 68.9621 361.062 69.9545C360.691 70.9394 360.506 72.0455 360.506 73.2727C360.506 74.5152 360.695 75.6439 361.074 76.6591C361.46 77.6667 362.028 78.4697 362.778 79.0682C363.536 79.6591 364.475 79.9545 365.597 79.9545ZM386.29 64.5455V66.8182H376.881V64.5455H386.29ZM379.699 82V62.1364C379.699 61.1364 379.934 60.303 380.403 59.6364C380.873 58.9697 381.483 58.4697 382.233 58.1364C382.983 57.803 383.775 57.6364 384.608 57.6364C385.267 57.6364 385.805 57.6894 386.222 57.7955C386.638 57.9015 386.949 58 387.153 58.0909L386.381 60.4091C386.244 60.3636 386.055 60.3068 385.812 60.2386C385.578 60.1705 385.267 60.1364 384.881 60.1364C383.994 60.1364 383.354 60.3598 382.96 60.8068C382.574 61.2538 382.381 61.9091 382.381 62.7727V82H379.699Z" fill="white"/>
<path d="M149.818 193V169.727H163.773V172.227H152.636V180.091H162.727V182.591H152.636V193H149.818ZM168.048 193V175.545H170.639V178.182H170.821C171.139 177.318 171.715 176.617 172.548 176.08C173.382 175.542 174.321 175.273 175.366 175.273C175.563 175.273 175.81 175.277 176.105 175.284C176.401 175.292 176.624 175.303 176.776 175.318V178.045C176.685 178.023 176.476 177.989 176.151 177.943C175.832 177.89 175.495 177.864 175.139 177.864C174.291 177.864 173.533 178.042 172.866 178.398C172.207 178.746 171.685 179.231 171.298 179.852C170.92 180.466 170.73 181.167 170.73 181.955V193H168.048ZM186.514 193.364C184.938 193.364 183.556 192.989 182.366 192.239C181.185 191.489 180.26 190.439 179.594 189.091C178.935 187.742 178.605 186.167 178.605 184.364C178.605 182.545 178.935 180.958 179.594 179.602C180.26 178.246 181.185 177.193 182.366 176.443C183.556 175.693 184.938 175.318 186.514 175.318C188.09 175.318 189.469 175.693 190.651 176.443C191.84 177.193 192.764 178.246 193.423 179.602C194.09 180.958 194.423 182.545 194.423 184.364C194.423 186.167 194.09 187.742 193.423 189.091C192.764 190.439 191.84 191.489 190.651 192.239C189.469 192.989 188.09 193.364 186.514 193.364ZM186.514 190.955C187.711 190.955 188.696 190.648 189.469 190.034C190.241 189.42 190.813 188.614 191.185 187.614C191.556 186.614 191.741 185.53 191.741 184.364C191.741 183.197 191.556 182.11 191.185 181.102C190.813 180.095 190.241 179.28 189.469 178.659C188.696 178.038 187.711 177.727 186.514 177.727C185.317 177.727 184.332 178.038 183.56 178.659C182.787 179.28 182.215 180.095 181.844 181.102C181.473 182.11 181.287 183.197 181.287 184.364C181.287 185.53 181.473 186.614 181.844 187.614C182.215 188.614 182.787 189.42 183.56 190.034C184.332 190.648 185.317 190.955 186.514 190.955ZM201.199 182.5V193H198.517V175.545H201.108V178.273H201.335C201.744 177.386 202.366 176.674 203.199 176.136C204.032 175.591 205.108 175.318 206.426 175.318C207.608 175.318 208.642 175.561 209.528 176.045C210.415 176.523 211.104 177.25 211.597 178.227C212.089 179.197 212.335 180.424 212.335 181.909V193H209.653V182.091C209.653 180.72 209.297 179.652 208.585 178.886C207.873 178.114 206.896 177.727 205.653 177.727C204.797 177.727 204.032 177.913 203.358 178.284C202.691 178.655 202.165 179.197 201.778 179.909C201.392 180.621 201.199 181.485 201.199 182.5ZM224.827 175.545V177.818H215.781V175.545H224.827ZM218.418 171.364H221.099V188C221.099 188.758 221.209 189.326 221.429 189.705C221.656 190.076 221.944 190.326 222.293 190.455C222.649 190.576 223.024 190.636 223.418 190.636C223.713 190.636 223.955 190.621 224.145 190.591C224.334 190.553 224.486 190.523 224.599 190.5L225.145 192.909C224.963 192.977 224.709 193.045 224.384 193.114C224.058 193.189 223.645 193.227 223.145 193.227C222.387 193.227 221.645 193.064 220.918 192.739C220.198 192.413 219.599 191.917 219.122 191.25C218.652 190.583 218.418 189.742 218.418 188.727V171.364ZM235.991 193.364C234.31 193.364 232.859 192.992 231.639 192.25C230.427 191.5 229.491 190.455 228.832 189.114C228.181 187.765 227.855 186.197 227.855 184.409C227.855 182.621 228.181 181.045 228.832 179.682C229.491 178.311 230.408 177.242 231.582 176.477C232.764 175.705 234.143 175.318 235.719 175.318C236.628 175.318 237.526 175.47 238.412 175.773C239.298 176.076 240.105 176.568 240.832 177.25C241.56 177.924 242.139 178.818 242.571 179.932C243.003 181.045 243.219 182.417 243.219 184.045V185.182H229.764V182.864H240.491C240.491 181.879 240.295 181 239.901 180.227C239.514 179.455 238.961 178.845 238.241 178.398C237.529 177.951 236.688 177.727 235.719 177.727C234.651 177.727 233.726 177.992 232.946 178.523C232.173 179.045 231.579 179.727 231.162 180.568C230.745 181.409 230.537 182.311 230.537 183.273V184.818C230.537 186.136 230.764 187.254 231.219 188.17C231.681 189.08 232.321 189.773 233.139 190.25C233.957 190.72 234.908 190.955 235.991 190.955C236.696 190.955 237.332 190.856 237.901 190.659C238.476 190.455 238.973 190.152 239.389 189.75C239.806 189.341 240.128 188.833 240.355 188.227L242.946 188.955C242.673 189.833 242.215 190.606 241.571 191.273C240.927 191.932 240.132 192.447 239.185 192.818C238.238 193.182 237.173 193.364 235.991 193.364ZM249.98 182.5V193H247.298V175.545H249.889V178.273H250.116C250.526 177.386 251.147 176.674 251.98 176.136C252.813 175.591 253.889 175.318 255.207 175.318C256.389 175.318 257.423 175.561 258.31 176.045C259.196 176.523 259.885 177.25 260.378 178.227C260.87 179.197 261.116 180.424 261.116 181.909V193H258.435V182.091C258.435 180.72 258.079 179.652 257.366 178.886C256.654 178.114 255.677 177.727 254.435 177.727C253.579 177.727 252.813 177.913 252.139 178.284C251.473 178.655 250.946 179.197 250.56 179.909C250.173 180.621 249.98 181.485 249.98 182.5ZM272.608 193.364C271.153 193.364 269.869 192.996 268.756 192.261C267.642 191.519 266.771 190.473 266.142 189.125C265.513 187.769 265.199 186.167 265.199 184.318C265.199 182.485 265.513 180.894 266.142 179.545C266.771 178.197 267.646 177.155 268.767 176.42C269.888 175.686 271.184 175.318 272.653 175.318C273.79 175.318 274.688 175.508 275.347 175.886C276.013 176.258 276.521 176.682 276.869 177.159C277.225 177.629 277.502 178.015 277.699 178.318H277.926V169.727H280.608V193H278.017V190.318H277.699C277.502 190.636 277.222 191.038 276.858 191.523C276.494 192 275.975 192.428 275.301 192.807C274.627 193.178 273.729 193.364 272.608 193.364ZM272.972 190.955C274.047 190.955 274.956 190.674 275.699 190.114C276.441 189.545 277.006 188.761 277.392 187.761C277.778 186.754 277.972 185.591 277.972 184.273C277.972 182.97 277.782 181.83 277.403 180.852C277.025 179.867 276.464 179.102 275.722 178.557C274.979 178.004 274.063 177.727 272.972 177.727C271.835 177.727 270.888 178.019 270.131 178.602C269.381 179.178 268.816 179.962 268.438 180.955C268.066 181.939 267.881 183.045 267.881 184.273C267.881 185.515 268.07 186.644 268.449 187.659C268.835 188.667 269.403 189.47 270.153 190.068C270.911 190.659 271.85 190.955 272.972 190.955ZM295.256 193V169.727H303.119C304.938 169.727 306.43 170.038 307.597 170.659C308.763 171.273 309.627 172.117 310.188 173.193C310.748 174.269 311.028 175.492 311.028 176.864C311.028 178.235 310.748 179.451 310.188 180.511C309.627 181.572 308.767 182.405 307.608 183.011C306.449 183.61 304.968 183.909 303.165 183.909H296.801V181.364H303.074C304.316 181.364 305.316 181.182 306.074 180.818C306.839 180.455 307.392 179.939 307.733 179.273C308.081 178.598 308.256 177.795 308.256 176.864C308.256 175.932 308.081 175.117 307.733 174.42C307.384 173.723 306.828 173.186 306.062 172.807C305.297 172.42 304.286 172.227 303.028 172.227H298.074V193H295.256ZM306.21 182.545L311.938 193H308.665L303.028 182.545H306.21ZM322.491 193.364C320.81 193.364 319.359 192.992 318.139 192.25C316.927 191.5 315.991 190.455 315.332 189.114C314.681 187.765 314.355 186.197 314.355 184.409C314.355 182.621 314.681 181.045 315.332 179.682C315.991 178.311 316.908 177.242 318.082 176.477C319.264 175.705 320.643 175.318 322.219 175.318C323.128 175.318 324.026 175.47 324.912 175.773C325.798 176.076 326.605 176.568 327.332 177.25C328.06 177.924 328.639 178.818 329.071 179.932C329.503 181.045 329.719 182.417 329.719 184.045V185.182H316.264V182.864H326.991C326.991 181.879 326.795 181 326.401 180.227C326.014 179.455 325.461 178.845 324.741 178.398C324.029 177.951 323.188 177.727 322.219 177.727C321.151 177.727 320.226 177.992 319.446 178.523C318.673 179.045 318.079 179.727 317.662 180.568C317.245 181.409 317.037 182.311 317.037 183.273V184.818C317.037 186.136 317.264 187.254 317.719 188.17C318.181 189.08 318.821 189.773 319.639 190.25C320.457 190.72 321.408 190.955 322.491 190.955C323.196 190.955 323.832 190.856 324.401 190.659C324.976 190.455 325.473 190.152 325.889 189.75C326.306 189.341 326.628 188.833 326.855 188.227L329.446 188.955C329.173 189.833 328.715 190.606 328.071 191.273C327.427 191.932 326.632 192.447 325.685 192.818C324.738 193.182 323.673 193.364 322.491 193.364ZM346.162 179.455L343.753 180.136C343.601 179.735 343.378 179.345 343.082 178.966C342.795 178.58 342.401 178.261 341.901 178.011C341.401 177.761 340.76 177.636 339.98 177.636C338.912 177.636 338.022 177.883 337.31 178.375C336.605 178.86 336.253 179.477 336.253 180.227C336.253 180.894 336.495 181.42 336.98 181.807C337.465 182.193 338.223 182.515 339.253 182.773L341.844 183.409C343.404 183.788 344.567 184.367 345.332 185.148C346.098 185.92 346.48 186.917 346.48 188.136C346.48 189.136 346.192 190.03 345.616 190.818C345.048 191.606 344.253 192.227 343.23 192.682C342.207 193.136 341.018 193.364 339.662 193.364C337.882 193.364 336.408 192.977 335.241 192.205C334.075 191.432 333.336 190.303 333.026 188.818L335.571 188.182C335.813 189.121 336.272 189.826 336.946 190.295C337.628 190.765 338.518 191 339.616 191C340.866 191 341.859 190.735 342.594 190.205C343.336 189.667 343.707 189.023 343.707 188.273C343.707 187.667 343.495 187.159 343.071 186.75C342.647 186.333 341.995 186.023 341.116 185.818L338.207 185.136C336.609 184.758 335.435 184.17 334.685 183.375C333.942 182.572 333.571 181.568 333.571 180.364C333.571 179.379 333.848 178.508 334.401 177.75C334.961 176.992 335.723 176.398 336.685 175.966C337.654 175.534 338.753 175.318 339.98 175.318C341.707 175.318 343.063 175.697 344.048 176.455C345.041 177.212 345.745 178.212 346.162 179.455ZM361.517 185.864V175.545H364.199V193H361.517V190.045H361.335C360.926 190.932 360.29 191.686 359.426 192.307C358.563 192.92 357.472 193.227 356.153 193.227C355.062 193.227 354.093 192.989 353.244 192.511C352.396 192.027 351.729 191.299 351.244 190.33C350.759 189.352 350.517 188.121 350.517 186.636V175.545H353.199V186.455C353.199 187.727 353.555 188.742 354.267 189.5C354.987 190.258 355.903 190.636 357.017 190.636C357.684 190.636 358.362 190.466 359.051 190.125C359.748 189.784 360.331 189.261 360.801 188.557C361.278 187.852 361.517 186.955 361.517 185.864ZM369.111 193V175.545H371.702V178.273H371.929C372.293 177.341 372.88 176.617 373.69 176.102C374.501 175.58 375.474 175.318 376.611 175.318C377.762 175.318 378.721 175.58 379.486 176.102C380.259 176.617 380.861 177.341 381.293 178.273H381.474C381.921 177.371 382.592 176.655 383.486 176.125C384.38 175.587 385.452 175.318 386.702 175.318C388.262 175.318 389.539 175.807 390.531 176.784C391.524 177.754 392.02 179.265 392.02 181.318V193H389.338V181.318C389.338 180.03 388.986 179.11 388.281 178.557C387.577 178.004 386.747 177.727 385.793 177.727C384.565 177.727 383.615 178.098 382.94 178.841C382.266 179.576 381.929 180.508 381.929 181.636V193H379.202V181.045C379.202 180.053 378.88 179.254 378.236 178.648C377.592 178.034 376.762 177.727 375.747 177.727C375.05 177.727 374.399 177.913 373.793 178.284C373.194 178.655 372.709 179.17 372.338 179.83C371.974 180.481 371.793 181.235 371.793 182.091V193H369.111ZM404.241 193.364C402.56 193.364 401.109 192.992 399.889 192.25C398.677 191.5 397.741 190.455 397.082 189.114C396.431 187.765 396.105 186.197 396.105 184.409C396.105 182.621 396.431 181.045 397.082 179.682C397.741 178.311 398.658 177.242 399.832 176.477C401.014 175.705 402.393 175.318 403.969 175.318C404.878 175.318 405.776 175.47 406.662 175.773C407.548 176.076 408.355 176.568 409.082 177.25C409.81 177.924 410.389 178.818 410.821 179.932C411.253 181.045 411.469 182.417 411.469 184.045V185.182H398.014V182.864H408.741C408.741 181.879 408.545 181 408.151 180.227C407.764 179.455 407.211 178.845 406.491 178.398C405.779 177.951 404.938 177.727 403.969 177.727C402.901 177.727 401.976 177.992 401.196 178.523C400.423 179.045 399.829 179.727 399.412 180.568C398.995 181.409 398.787 182.311 398.787 183.273V184.818C398.787 186.136 399.014 187.254 399.469 188.17C399.931 189.08 400.571 189.773 401.389 190.25C402.207 190.72 403.158 190.955 404.241 190.955C404.946 190.955 405.582 190.856 406.151 190.659C406.726 190.455 407.223 190.152 407.639 189.75C408.056 189.341 408.378 188.833 408.605 188.227L411.196 188.955C410.923 189.833 410.465 190.606 409.821 191.273C409.177 191.932 408.382 192.447 407.435 192.818C406.488 193.182 405.423 193.364 404.241 193.364ZM417.503 193.182C416.942 193.182 416.461 192.981 416.06 192.58C415.658 192.178 415.457 191.697 415.457 191.136C415.457 190.576 415.658 190.095 416.06 189.693C416.461 189.292 416.942 189.091 417.503 189.091C418.063 189.091 418.545 189.292 418.946 189.693C419.348 190.095 419.548 190.576 419.548 191.136C419.548 191.508 419.454 191.848 419.264 192.159C419.082 192.47 418.836 192.72 418.526 192.909C418.223 193.091 417.882 193.182 417.503 193.182ZM424.361 199.545V175.545H426.952V178.318H427.27C427.467 178.015 427.74 177.629 428.088 177.159C428.444 176.682 428.952 176.258 429.611 175.886C430.277 175.508 431.179 175.318 432.315 175.318C433.785 175.318 435.08 175.686 436.202 176.42C437.323 177.155 438.198 178.197 438.827 179.545C439.455 180.894 439.77 182.485 439.77 184.318C439.77 186.167 439.455 187.769 438.827 189.125C438.198 190.473 437.327 191.519 436.213 192.261C435.099 192.996 433.815 193.364 432.361 193.364C431.24 193.364 430.342 193.178 429.668 192.807C428.993 192.428 428.474 192 428.111 191.523C427.747 191.038 427.467 190.636 427.27 190.318H427.043V199.545H424.361ZM426.997 184.273C426.997 185.591 427.19 186.754 427.577 187.761C427.963 188.761 428.527 189.545 429.27 190.114C430.012 190.674 430.921 190.955 431.997 190.955C433.118 190.955 434.054 190.659 434.804 190.068C435.562 189.47 436.13 188.667 436.509 187.659C436.895 186.644 437.088 185.515 437.088 184.273C437.088 183.045 436.899 181.939 436.52 180.955C436.149 179.962 435.584 179.178 434.827 178.602C434.077 178.019 433.134 177.727 431.997 177.727C430.906 177.727 429.99 178.004 429.247 178.557C428.505 179.102 427.944 179.867 427.565 180.852C427.187 181.83 426.997 182.97 426.997 184.273ZM450.452 193.364C448.997 193.364 447.713 192.996 446.599 192.261C445.486 191.519 444.615 190.473 443.986 189.125C443.357 187.769 443.043 186.167 443.043 184.318C443.043 182.485 443.357 180.894 443.986 179.545C444.615 178.197 445.49 177.155 446.611 176.42C447.732 175.686 449.027 175.318 450.497 175.318C451.634 175.318 452.531 175.508 453.19 175.886C453.857 176.258 454.365 176.682 454.713 177.159C455.069 177.629 455.346 178.015 455.543 178.318H455.77V169.727H458.452V193H455.861V190.318H455.543C455.346 190.636 455.065 191.038 454.702 191.523C454.338 192 453.819 192.428 453.145 192.807C452.471 193.178 451.573 193.364 450.452 193.364ZM450.815 190.955C451.891 190.955 452.8 190.674 453.543 190.114C454.285 189.545 454.849 188.761 455.236 187.761C455.622 186.754 455.815 185.591 455.815 184.273C455.815 182.97 455.626 181.83 455.247 180.852C454.868 179.867 454.308 179.102 453.565 178.557C452.823 178.004 451.906 177.727 450.815 177.727C449.679 177.727 448.732 178.019 447.974 178.602C447.224 179.178 446.66 179.962 446.281 180.955C445.91 181.939 445.724 183.045 445.724 184.273C445.724 185.515 445.914 186.644 446.293 187.659C446.679 188.667 447.247 189.47 447.997 190.068C448.755 190.659 449.694 190.955 450.815 190.955ZM471.509 175.545V177.818H462.099V175.545H471.509ZM464.918 193V173.136C464.918 172.136 465.152 171.303 465.622 170.636C466.092 169.97 466.702 169.47 467.452 169.136C468.202 168.803 468.993 168.636 469.827 168.636C470.486 168.636 471.024 168.689 471.44 168.795C471.857 168.902 472.168 169 472.372 169.091L471.599 171.409C471.463 171.364 471.274 171.307 471.031 171.239C470.796 171.17 470.486 171.136 470.099 171.136C469.213 171.136 468.573 171.36 468.179 171.807C467.793 172.254 467.599 172.909 467.599 173.773V193H464.918Z" fill="white"/>
<path d="M149.818 314V290.727H157.955C159.576 290.727 160.913 291.008 161.966 291.568C163.019 292.121 163.803 292.867 164.318 293.807C164.833 294.739 165.091 295.773 165.091 296.909C165.091 297.909 164.913 298.735 164.557 299.386C164.208 300.038 163.746 300.553 163.17 300.932C162.602 301.311 161.985 301.591 161.318 301.773V302C162.03 302.045 162.746 302.295 163.466 302.75C164.186 303.205 164.788 303.856 165.273 304.705C165.758 305.553 166 306.591 166 307.818C166 308.985 165.735 310.034 165.205 310.966C164.674 311.898 163.837 312.636 162.693 313.182C161.549 313.727 160.061 314 158.227 314H149.818ZM152.636 311.5H158.227C160.068 311.5 161.375 311.144 162.148 310.432C162.928 309.712 163.318 308.841 163.318 307.818C163.318 307.03 163.117 306.303 162.716 305.636C162.314 304.962 161.742 304.424 161 304.023C160.258 303.614 159.379 303.409 158.364 303.409H152.636V311.5ZM152.636 300.955H157.864C158.712 300.955 159.477 300.788 160.159 300.455C160.848 300.121 161.394 299.652 161.795 299.045C162.205 298.439 162.409 297.727 162.409 296.909C162.409 295.886 162.053 295.019 161.341 294.307C160.629 293.587 159.5 293.227 157.955 293.227H152.636V300.955ZM175.403 314.409C174.297 314.409 173.294 314.201 172.392 313.784C171.491 313.36 170.775 312.75 170.244 311.955C169.714 311.152 169.449 310.182 169.449 309.045C169.449 308.045 169.646 307.235 170.04 306.614C170.434 305.985 170.96 305.492 171.619 305.136C172.278 304.78 173.006 304.515 173.801 304.341C174.604 304.159 175.411 304.015 176.222 303.909C177.282 303.773 178.142 303.67 178.801 303.602C179.468 303.527 179.953 303.402 180.256 303.227C180.566 303.053 180.722 302.75 180.722 302.318V302.227C180.722 301.106 180.415 300.235 179.801 299.614C179.195 298.992 178.275 298.682 177.04 298.682C175.759 298.682 174.756 298.962 174.028 299.523C173.301 300.083 172.79 300.682 172.494 301.318L169.949 300.409C170.403 299.348 171.009 298.523 171.767 297.932C172.532 297.333 173.366 296.917 174.267 296.682C175.176 296.439 176.07 296.318 176.949 296.318C177.509 296.318 178.153 296.386 178.881 296.523C179.616 296.652 180.324 296.92 181.006 297.33C181.695 297.739 182.267 298.356 182.722 299.182C183.176 300.008 183.403 301.114 183.403 302.5V314H180.722V311.636H180.585C180.403 312.015 180.1 312.42 179.676 312.852C179.252 313.284 178.688 313.652 177.983 313.955C177.278 314.258 176.419 314.409 175.403 314.409ZM175.812 312C176.873 312 177.767 311.792 178.494 311.375C179.229 310.958 179.782 310.42 180.153 309.761C180.532 309.102 180.722 308.409 180.722 307.682V305.227C180.608 305.364 180.358 305.489 179.972 305.602C179.593 305.708 179.153 305.803 178.653 305.886C178.161 305.962 177.68 306.03 177.21 306.091C176.748 306.144 176.373 306.189 176.085 306.227C175.388 306.318 174.737 306.466 174.131 306.67C173.532 306.867 173.047 307.167 172.676 307.568C172.313 307.962 172.131 308.5 172.131 309.182C172.131 310.114 172.475 310.818 173.165 311.295C173.862 311.765 174.744 312 175.812 312ZM195.389 314.364C193.753 314.364 192.344 313.977 191.162 313.205C189.98 312.432 189.071 311.367 188.435 310.011C187.798 308.655 187.48 307.106 187.48 305.364C187.48 303.591 187.806 302.027 188.457 300.67C189.116 299.307 190.033 298.242 191.207 297.477C192.389 296.705 193.768 296.318 195.344 296.318C196.571 296.318 197.677 296.545 198.662 297C199.647 297.455 200.454 298.091 201.082 298.909C201.711 299.727 202.101 300.682 202.253 301.773H199.571C199.366 300.977 198.912 300.273 198.207 299.659C197.51 299.038 196.571 298.727 195.389 298.727C194.344 298.727 193.427 299 192.639 299.545C191.859 300.083 191.249 300.845 190.81 301.83C190.378 302.807 190.162 303.955 190.162 305.273C190.162 306.621 190.374 307.795 190.798 308.795C191.23 309.795 191.836 310.572 192.616 311.125C193.404 311.678 194.329 311.955 195.389 311.955C196.086 311.955 196.719 311.833 197.287 311.591C197.855 311.348 198.336 311 198.73 310.545C199.124 310.091 199.404 309.545 199.571 308.909H202.253C202.101 309.939 201.726 310.867 201.128 311.693C200.537 312.511 199.753 313.163 198.776 313.648C197.806 314.125 196.677 314.364 195.389 314.364ZM208.673 307.636L208.628 304.318H209.173L216.81 296.545H220.128L211.991 304.773H211.764L208.673 307.636ZM206.173 314V290.727H208.855V314H206.173ZM217.264 314L210.446 305.364L212.355 303.5L220.673 314H217.264ZM230.179 314.364C228.497 314.364 227.046 313.992 225.827 313.25C224.615 312.5 223.679 311.455 223.02 310.114C222.368 308.765 222.043 307.197 222.043 305.409C222.043 303.621 222.368 302.045 223.02 300.682C223.679 299.311 224.596 298.242 225.77 297.477C226.952 296.705 228.33 296.318 229.906 296.318C230.815 296.318 231.713 296.47 232.599 296.773C233.486 297.076 234.293 297.568 235.02 298.25C235.747 298.924 236.327 299.818 236.759 300.932C237.19 302.045 237.406 303.417 237.406 305.045V306.182H223.952V303.864H234.679C234.679 302.879 234.482 302 234.088 301.227C233.702 300.455 233.149 299.845 232.429 299.398C231.717 298.951 230.876 298.727 229.906 298.727C228.838 298.727 227.914 298.992 227.134 299.523C226.361 300.045 225.766 300.727 225.349 301.568C224.933 302.409 224.724 303.311 224.724 304.273V305.818C224.724 307.136 224.952 308.254 225.406 309.17C225.868 310.08 226.509 310.773 227.327 311.25C228.145 311.72 229.096 311.955 230.179 311.955C230.884 311.955 231.52 311.856 232.088 311.659C232.664 311.455 233.16 311.152 233.577 310.75C233.993 310.341 234.315 309.833 234.543 309.227L237.134 309.955C236.861 310.833 236.402 311.606 235.759 312.273C235.115 312.932 234.319 313.447 233.372 313.818C232.425 314.182 231.361 314.364 230.179 314.364ZM244.168 303.5V314H241.486V296.545H244.077V299.273H244.304C244.713 298.386 245.334 297.674 246.168 297.136C247.001 296.591 248.077 296.318 249.395 296.318C250.577 296.318 251.611 296.561 252.497 297.045C253.384 297.523 254.073 298.25 254.565 299.227C255.058 300.197 255.304 301.424 255.304 302.909V314H252.622V303.091C252.622 301.72 252.266 300.652 251.554 299.886C250.842 299.114 249.865 298.727 248.622 298.727C247.766 298.727 247.001 298.913 246.327 299.284C245.66 299.655 245.134 300.197 244.747 300.909C244.361 301.621 244.168 302.485 244.168 303.5ZM266.795 314.364C265.341 314.364 264.057 313.996 262.943 313.261C261.83 312.519 260.958 311.473 260.33 310.125C259.701 308.769 259.386 307.167 259.386 305.318C259.386 303.485 259.701 301.894 260.33 300.545C260.958 299.197 261.833 298.155 262.955 297.42C264.076 296.686 265.371 296.318 266.841 296.318C267.977 296.318 268.875 296.508 269.534 296.886C270.201 297.258 270.708 297.682 271.057 298.159C271.413 298.629 271.689 299.015 271.886 299.318H272.114V290.727H274.795V314H272.205V311.318H271.886C271.689 311.636 271.409 312.038 271.045 312.523C270.682 313 270.163 313.428 269.489 313.807C268.814 314.178 267.917 314.364 266.795 314.364ZM267.159 311.955C268.235 311.955 269.144 311.674 269.886 311.114C270.629 310.545 271.193 309.761 271.58 308.761C271.966 307.754 272.159 306.591 272.159 305.273C272.159 303.97 271.97 302.83 271.591 301.852C271.212 300.867 270.652 300.102 269.909 299.557C269.167 299.004 268.25 298.727 267.159 298.727C266.023 298.727 265.076 299.019 264.318 299.602C263.568 300.178 263.004 300.962 262.625 301.955C262.254 302.939 262.068 304.045 262.068 305.273C262.068 306.515 262.258 307.644 262.636 308.659C263.023 309.667 263.591 310.47 264.341 311.068C265.098 311.659 266.038 311.955 267.159 311.955ZM289.443 314V290.727H297.307C299.125 290.727 300.617 291.038 301.784 291.659C302.951 292.273 303.814 293.117 304.375 294.193C304.936 295.269 305.216 296.492 305.216 297.864C305.216 299.235 304.936 300.451 304.375 301.511C303.814 302.572 302.955 303.405 301.795 304.011C300.636 304.61 299.155 304.909 297.352 304.909H290.989V302.364H297.261C298.504 302.364 299.504 302.182 300.261 301.818C301.027 301.455 301.58 300.939 301.92 300.273C302.269 299.598 302.443 298.795 302.443 297.864C302.443 296.932 302.269 296.117 301.92 295.42C301.572 294.723 301.015 294.186 300.25 293.807C299.485 293.42 298.473 293.227 297.216 293.227H292.261V314H289.443ZM300.398 303.545L306.125 314H302.852L297.216 303.545H300.398ZM316.679 314.364C314.997 314.364 313.546 313.992 312.327 313.25C311.115 312.5 310.179 311.455 309.52 310.114C308.868 308.765 308.543 307.197 308.543 305.409C308.543 303.621 308.868 302.045 309.52 300.682C310.179 299.311 311.096 298.242 312.27 297.477C313.452 296.705 314.83 296.318 316.406 296.318C317.315 296.318 318.213 296.47 319.099 296.773C319.986 297.076 320.793 297.568 321.52 298.25C322.247 298.924 322.827 299.818 323.259 300.932C323.69 302.045 323.906 303.417 323.906 305.045V306.182H310.452V303.864H321.179C321.179 302.879 320.982 302 320.588 301.227C320.202 300.455 319.649 299.845 318.929 299.398C318.217 298.951 317.376 298.727 316.406 298.727C315.338 298.727 314.414 298.992 313.634 299.523C312.861 300.045 312.266 300.727 311.849 301.568C311.433 302.409 311.224 303.311 311.224 304.273V305.818C311.224 307.136 311.452 308.254 311.906 309.17C312.368 310.08 313.009 310.773 313.827 311.25C314.645 311.72 315.596 311.955 316.679 311.955C317.384 311.955 318.02 311.856 318.588 311.659C319.164 311.455 319.66 311.152 320.077 310.75C320.493 310.341 320.815 309.833 321.043 309.227L323.634 309.955C323.361 310.833 322.902 311.606 322.259 312.273C321.615 312.932 320.819 313.447 319.872 313.818C318.925 314.182 317.861 314.364 316.679 314.364ZM340.349 300.455L337.94 301.136C337.789 300.735 337.565 300.345 337.27 299.966C336.982 299.58 336.588 299.261 336.088 299.011C335.588 298.761 334.948 298.636 334.168 298.636C333.099 298.636 332.209 298.883 331.497 299.375C330.793 299.86 330.44 300.477 330.44 301.227C330.44 301.894 330.683 302.42 331.168 302.807C331.652 303.193 332.41 303.515 333.44 303.773L336.031 304.409C337.592 304.788 338.755 305.367 339.52 306.148C340.285 306.92 340.668 307.917 340.668 309.136C340.668 310.136 340.38 311.03 339.804 311.818C339.236 312.606 338.44 313.227 337.418 313.682C336.395 314.136 335.205 314.364 333.849 314.364C332.069 314.364 330.596 313.977 329.429 313.205C328.262 312.432 327.524 311.303 327.213 309.818L329.759 309.182C330.001 310.121 330.459 310.826 331.134 311.295C331.815 311.765 332.705 312 333.804 312C335.054 312 336.046 311.735 336.781 311.205C337.524 310.667 337.895 310.023 337.895 309.273C337.895 308.667 337.683 308.159 337.259 307.75C336.834 307.333 336.183 307.023 335.304 306.818L332.395 306.136C330.796 305.758 329.622 305.17 328.872 304.375C328.13 303.572 327.759 302.568 327.759 301.364C327.759 300.379 328.035 299.508 328.588 298.75C329.149 297.992 329.91 297.398 330.872 296.966C331.842 296.534 332.94 296.318 334.168 296.318C335.895 296.318 337.251 296.697 338.236 297.455C339.228 298.212 339.933 299.212 340.349 300.455ZM355.705 306.864V296.545H358.386V314H355.705V311.045H355.523C355.114 311.932 354.477 312.686 353.614 313.307C352.75 313.92 351.659 314.227 350.341 314.227C349.25 314.227 348.28 313.989 347.432 313.511C346.583 313.027 345.917 312.299 345.432 311.33C344.947 310.352 344.705 309.121 344.705 307.636V296.545H347.386V307.455C347.386 308.727 347.742 309.742 348.455 310.5C349.174 311.258 350.091 311.636 351.205 311.636C351.871 311.636 352.549 311.466 353.239 311.125C353.936 310.784 354.519 310.261 354.989 309.557C355.466 308.852 355.705 307.955 355.705 306.864ZM363.298 314V296.545H365.889V299.273H366.116C366.48 298.341 367.067 297.617 367.878 297.102C368.688 296.58 369.662 296.318 370.798 296.318C371.95 296.318 372.908 296.58 373.673 297.102C374.446 297.617 375.048 298.341 375.48 299.273H375.662C376.109 298.371 376.779 297.655 377.673 297.125C378.567 296.587 379.639 296.318 380.889 296.318C382.45 296.318 383.726 296.807 384.719 297.784C385.711 298.754 386.207 300.265 386.207 302.318V314H383.526V302.318C383.526 301.03 383.173 300.11 382.469 299.557C381.764 299.004 380.935 298.727 379.98 298.727C378.753 298.727 377.802 299.098 377.128 299.841C376.454 300.576 376.116 301.508 376.116 302.636V314H373.389V302.045C373.389 301.053 373.067 300.254 372.423 299.648C371.779 299.034 370.95 298.727 369.935 298.727C369.238 298.727 368.586 298.913 367.98 299.284C367.382 299.655 366.897 300.17 366.526 300.83C366.162 301.481 365.98 302.235 365.98 303.091V314H363.298ZM398.429 314.364C396.747 314.364 395.296 313.992 394.077 313.25C392.865 312.5 391.929 311.455 391.27 310.114C390.618 308.765 390.293 307.197 390.293 305.409C390.293 303.621 390.618 302.045 391.27 300.682C391.929 299.311 392.846 298.242 394.02 297.477C395.202 296.705 396.58 296.318 398.156 296.318C399.065 296.318 399.963 296.47 400.849 296.773C401.736 297.076 402.543 297.568 403.27 298.25C403.997 298.924 404.577 299.818 405.009 300.932C405.44 302.045 405.656 303.417 405.656 305.045V306.182H392.202V303.864H402.929C402.929 302.879 402.732 302 402.338 301.227C401.952 300.455 401.399 299.845 400.679 299.398C399.967 298.951 399.126 298.727 398.156 298.727C397.088 298.727 396.164 298.992 395.384 299.523C394.611 300.045 394.016 300.727 393.599 301.568C393.183 302.409 392.974 303.311 392.974 304.273V305.818C392.974 307.136 393.202 308.254 393.656 309.17C394.118 310.08 394.759 310.773 395.577 311.25C396.395 311.72 397.346 311.955 398.429 311.955C399.134 311.955 399.77 311.856 400.338 311.659C400.914 311.455 401.41 311.152 401.827 310.75C402.243 310.341 402.565 309.833 402.793 309.227L405.384 309.955C405.111 310.833 404.652 311.606 404.009 312.273C403.365 312.932 402.569 313.447 401.622 313.818C400.675 314.182 399.611 314.364 398.429 314.364ZM411.69 314.182C411.13 314.182 410.649 313.981 410.247 313.58C409.846 313.178 409.645 312.697 409.645 312.136C409.645 311.576 409.846 311.095 410.247 310.693C410.649 310.292 411.13 310.091 411.69 310.091C412.251 310.091 412.732 310.292 413.134 310.693C413.535 311.095 413.736 311.576 413.736 312.136C413.736 312.508 413.641 312.848 413.452 313.159C413.27 313.47 413.024 313.72 412.713 313.909C412.41 314.091 412.069 314.182 411.69 314.182ZM418.548 320.545V296.545H421.139V299.318H421.457C421.654 299.015 421.927 298.629 422.276 298.159C422.632 297.682 423.139 297.258 423.798 296.886C424.465 296.508 425.366 296.318 426.503 296.318C427.973 296.318 429.268 296.686 430.389 297.42C431.51 298.155 432.385 299.197 433.014 300.545C433.643 301.894 433.957 303.485 433.957 305.318C433.957 307.167 433.643 308.769 433.014 310.125C432.385 311.473 431.514 312.519 430.401 313.261C429.287 313.996 428.003 314.364 426.548 314.364C425.427 314.364 424.529 314.178 423.855 313.807C423.181 313.428 422.662 313 422.298 312.523C421.935 312.038 421.654 311.636 421.457 311.318H421.23V320.545H418.548ZM421.185 305.273C421.185 306.591 421.378 307.754 421.764 308.761C422.151 309.761 422.715 310.545 423.457 311.114C424.2 311.674 425.109 311.955 426.185 311.955C427.306 311.955 428.241 311.659 428.991 311.068C429.749 310.47 430.317 309.667 430.696 308.659C431.082 307.644 431.276 306.515 431.276 305.273C431.276 304.045 431.086 302.939 430.707 301.955C430.336 300.962 429.772 300.178 429.014 299.602C428.264 299.019 427.321 298.727 426.185 298.727C425.094 298.727 424.177 299.004 423.435 299.557C422.692 300.102 422.132 300.867 421.753 301.852C421.374 302.83 421.185 303.97 421.185 305.273ZM444.639 314.364C443.185 314.364 441.901 313.996 440.787 313.261C439.673 312.519 438.802 311.473 438.173 310.125C437.545 308.769 437.23 307.167 437.23 305.318C437.23 303.485 437.545 301.894 438.173 300.545C438.802 299.197 439.677 298.155 440.798 297.42C441.92 296.686 443.215 296.318 444.685 296.318C445.821 296.318 446.719 296.508 447.378 296.886C448.045 297.258 448.552 297.682 448.901 298.159C449.257 298.629 449.533 299.015 449.73 299.318H449.957V290.727H452.639V314H450.048V311.318H449.73C449.533 311.636 449.253 312.038 448.889 312.523C448.526 313 448.007 313.428 447.332 313.807C446.658 314.178 445.76 314.364 444.639 314.364ZM445.003 311.955C446.079 311.955 446.988 311.674 447.73 311.114C448.473 310.545 449.037 309.761 449.423 308.761C449.81 307.754 450.003 306.591 450.003 305.273C450.003 303.97 449.813 302.83 449.435 301.852C449.056 300.867 448.495 300.102 447.753 299.557C447.01 299.004 446.094 298.727 445.003 298.727C443.866 298.727 442.92 299.019 442.162 299.602C441.412 300.178 440.848 300.962 440.469 301.955C440.098 302.939 439.912 304.045 439.912 305.273C439.912 306.515 440.101 307.644 440.48 308.659C440.866 309.667 441.435 310.47 442.185 311.068C442.942 311.659 443.882 311.955 445.003 311.955ZM465.696 296.545V298.818H456.287V296.545H465.696ZM459.105 314V294.136C459.105 293.136 459.34 292.303 459.81 291.636C460.279 290.97 460.889 290.47 461.639 290.136C462.389 289.803 463.181 289.636 464.014 289.636C464.673 289.636 465.211 289.689 465.628 289.795C466.045 289.902 466.355 290 466.56 290.091L465.787 292.409C465.651 292.364 465.461 292.307 465.219 292.239C464.984 292.17 464.673 292.136 464.287 292.136C463.401 292.136 462.76 292.36 462.366 292.807C461.98 293.254 461.787 293.909 461.787 294.773V314H459.105Z" fill="white"/>
</g>
<defs>
<clipPath id="clip0_65_1706">
<rect width="604" height="398" fill="white"/>
</clipPath>
</defs>
</svg>
