<svg enable-background="new 0 0 954.175 954.175" fill="#EA580C" version="1.1" viewBox="0 0 954.18 954.18" xml:space="preserve" xmlns="http://www.w3.org/2000/svg">

	
		<path d="m854 747.39c-15.7-15.701-36.6-23-57.2-21.801l-55.2-55.199c22.4-28.6 40.9-60 55.2-93.801 21.601-51.199 32.601-105.5 32.601-161.4s-11-110.3-32.601-161.4c-20.899-49.4-50.8-93.7-88.899-131.8-38.101-38.1-82.4-68-131.8-88.9-51.199-21.6-105.5-32.6-161.4-32.6-55.9 0-110.3 11-161.4 32.6-49.4 20.8-93.7 50.7-131.8 88.8s-68 82.4-88.9 131.8c-21.601 51.201-32.601 105.5-32.601 161.4 0 55.899 11 110.3 32.6 161.4 20.9 49.4 50.8 93.699 88.9 131.8 38.1 38.1 82.4 68 131.8 88.898 51.2 21.602 105.5 32.602 161.4 32.602 55.899 0 110.3-11 161.4-32.602 34.2-14.5 66-33.199 94.9-56.1l55.1 55.1c-1.1 20.602 6.101 41.5 21.801 57.201l78.3 78.299c14.6 14.602 33.8 22 53 22s38.399-7.299 53-22c29.3-29.299 29.3-76.799 0-106.1l-78.2-78.199zm-183.8-148.5c-9.9 13.6-20.9 26.6-33 38.699-11.8 11.801-24.4 22.5-37.601 32.1-53.399 39-117.6 60-185 60-84.1 0-163.1-32.699-222.5-92.199-59.4-59.4-92.2-138.5-92.2-222.5s32.7-163.1 92.2-222.5c59.4-59.4 138.5-92.2 222.5-92.2s163.1 32.7 222.5 92.2c59.4 59.4 92.2 138.5 92.2 222.5 0.101 67-20.599 130.7-59.099 183.9z"/>
		
			<path d="m386 193.69h57.5c18 0 32.9 14.2 35.7 32.6h50.3c-3.2-46.1-40.5-82.6-86-82.6h-57.5c-45.5 0-82.8 36.5-86 82.6h50.3c2.7-18.5 17.7-32.6 35.7-32.6z"/>
			<path d="m529.7 251.29h-311.5c-15.2 0-32.3 14.5-41.6 23.6-5.8 7-6.9 11.8-6.4 17.2 3.7 35.9 27.6 69.7 68.1 96.3 35.9 23.5 81 39 130.2 44.9 15 1.8 30.5 2.8 46.1 2.8 28.9 0 57.101-3.2 83.5-9.3 34.7-8 66.301-21 92.9-38.4 40.5-26.6 64.3-60.5 68.1-96.3 0.601-5.5-2.399-13.4-6.399-17.2-9.3-9.1-26.4-23.6-41.601-23.6h-81.4z"/>
			<path d="m613.1 421.89c-24.199 15.9-52 28.6-82.199 37.6-36.101 10.9-75.5 16.601-116.2 16.601-2.9 0-5.9 0-8.8-0.101-71.4-1.399-138.4-20.5-189.6-54.1-21.6-14.2-39.5-30.4-53.5-48.3-3.4-4.4-5.9-3.6-5.9 1.899v139.4c0 35.299 27.4 64 61.2 64h393c11.101 0 21.5-3.1 30.4-8.5 18.4-11 30.8-31.701 30.8-55.5v-139.3c0-5.5-2.5-6.3-5.899-1.9-13.801 17.799-31.701 34-53.301 48.2z"/>
		
	

</svg>