<?xml version="1.0" encoding="UTF-8"?>
<svg version="1.1" xmlns="http://www.w3.org/2000/svg" width="1080" height="1080">
<path d="M0 0 C356.4 0 712.8 0 1080 0 C1080 356.4 1080 712.8 1080 1080 C723.6 1080 367.2 1080 0 1080 C0 723.6 0 367.2 0 0 Z " fill="#EA580C" transform="translate(0,0)"/>
<path d="M0 0 C3.21453217 2.91527721 6.36713627 5.89174472 9.49609375 8.8984375 C10.22868408 9.59815674 10.22868408 9.59815674 10.97607422 10.31201172 C16.81715277 15.91764203 22.1813461 21.72397618 27.2109375 28.06640625 C28.74010793 29.961532 30.3169528 31.81911301 31.9375 33.63671875 C45.78846325 49.22163269 57.01415017 67.37028016 66.49609375 85.8984375 C66.93228027 86.74100098 67.3684668 87.58356445 67.81787109 88.45166016 C84.50298263 120.97609416 94.2251311 155.66355393 98.49609375 191.8984375 C98.59849365 192.74220947 98.70089355 193.58598145 98.80639648 194.45532227 C99.77350192 203.51205177 99.78157767 212.61207249 99.80859375 221.7109375 C99.81154449 222.58783234 99.81449524 223.46472717 99.8175354 224.36819458 C99.8300733 240.85515791 98.26780608 256.6319671 95.49609375 272.8984375 C95.22983482 274.58433079 94.96530689 276.27049911 94.703125 277.95703125 C87.2936833 324.24955956 66.39563649 369.15793355 37.49609375 405.8984375 C38.87695935 408.97101934 40.48112842 411.180735 42.78979492 413.62548828 C43.46197556 414.33947784 44.13415619 415.05346741 44.82670593 415.78909302 C47.93825237 419.03045443 51.06158757 422.25959077 54.20385742 425.47119141 C55.84755693 427.16295419 57.47770846 428.8679939 59.09350586 430.58642578 C69.52163326 442.5392889 69.52163326 442.5392889 83.78125 447.91015625 C86.01951554 447.91940852 88.25788228 447.91653807 90.49609375 447.8984375 C106.67441914 451.44608745 117.32710835 462.12228586 128.578125 473.44921875 C130.00476395 474.87315691 131.43199569 476.29650137 132.85978699 477.71928406 C135.83550745 480.68913912 138.8039547 483.66602545 141.76733398 486.64819336 C145.54733366 490.45100092 149.34504084 494.23553504 153.14839649 498.01496601 C156.0940721 500.94612149 159.03007345 503.88681915 161.96332359 506.83040428 C163.35930397 508.22903368 164.75820827 509.62475154 166.1601963 511.01735878 C180.15724813 524.9412166 180.15724813 524.9412166 184.49609375 533.8984375 C184.8046077 534.5154805 185.11312164 535.1325235 185.4309845 535.76826477 C191.6371514 549.13198855 191.00089426 563.61407033 186.0390625 577.203125 C180.45947317 591.15747364 170.11201776 601.64903599 156.49609375 607.8984375 C149.38270157 610.61324456 142.76830008 611.44799413 135.18359375 611.3984375 C134.17538574 611.39344238 133.16717773 611.38844727 132.12841797 611.38330078 C123.98182159 611.19323538 117.69617428 609.90441702 110.49609375 605.8984375 C109.73039063 605.48722656 108.9646875 605.07601562 108.17578125 604.65234375 C92.7804317 595.35443551 80.18206032 579.80269803 67.50195312 567.14453125 C64.78715189 564.43523671 62.06315983 561.73538111 59.33698654 559.03753662 C57.20231822 556.92167814 55.07456824 554.79895958 52.94852448 552.67443848 C51.94812501 551.67701608 50.9452866 550.68203235 49.93972015 549.68981934 C38.94089141 538.82691682 27.83050213 526.7980835 25.49609375 510.8984375 C25.49366165 509.93461151 25.49122955 508.97078552 25.48872375 507.97775269 C25.42537448 500.24230087 24.1108455 496.13576441 18.69169617 490.60623169 C17.471455 489.45536575 17.471455 489.45536575 16.2265625 488.28125 C14.9777404 487.04010941 14.9777404 487.04010941 13.70368958 485.77389526 C11.95149862 484.04408378 10.18494813 482.32870853 8.4050293 480.62744141 C5.67164342 478.01200284 2.98715863 475.35308888 0.30664062 472.68359375 C-1.40490338 471.00510736 -3.11900888 469.32922805 -4.8359375 467.65625 C-5.64335892 466.86066681 -6.45078033 466.06508362 -7.28266907 465.24539185 C-8.41855721 464.16703568 -8.41855721 464.16703568 -9.57739258 463.06689453 C-10.24055984 462.42881866 -10.90372711 461.7907428 -11.58699036 461.1333313 C-13.42741087 459.66295954 -13.42741087 459.66295954 -15.64146423 460.13261414 C-17.70326161 460.98041106 -19.22678653 461.9810552 -20.98828125 463.34765625 C-21.66334717 463.85893066 -22.33841309 464.37020508 -23.03393555 464.89697266 C-24.13282104 465.73301025 -24.13282104 465.73301025 -25.25390625 466.5859375 C-61.98898445 493.72956207 -106.23443756 511.32220521 -151.23339844 518.52832031 C-153.15359739 518.84133339 -155.067908 519.19015019 -156.98046875 519.546875 C-228.76361743 532.89737974 -307.75415999 511.51529636 -367.35180664 471.20751953 C-385.98428833 458.37289421 -405.29608427 443.34867489 -419.8203125 425.890625 C-421.8601108 423.47694256 -424.02802561 421.20194232 -426.19140625 418.8984375 C-453.18642989 389.24077876 -471.71719436 352.58427998 -484.50390625 314.8984375 C-484.85799561 313.87492187 -485.21208496 312.85140625 -485.5769043 311.796875 C-487.5857276 305.91857032 -489.30821145 300.10565273 -490.56640625 294.0234375 C-490.71400391 293.33636719 -490.86160156 292.64929688 -491.01367188 291.94140625 C-491.33092624 290.46088587 -491.64360454 288.97937962 -491.95239258 287.49707031 C-492.36547054 285.55072157 -492.79514874 283.60788321 -493.2331543 281.66699219 C-497.61271924 262.02761433 -498.78781861 242.27100858 -498.81640625 222.2109375 C-498.81990082 221.42904053 -498.82339539 220.64714355 -498.82699585 219.84155273 C-498.85544336 208.39873118 -497.96701121 197.24292373 -496.50390625 185.8984375 C-496.38893799 184.94606201 -496.27396973 183.99368652 -496.15551758 183.01245117 C-490.49543604 137.15018646 -473.36068569 91.56768659 -446.50390625 53.8984375 C-445.90835938 53.0425 -445.3128125 52.1865625 -444.69921875 51.3046875 C-435.58382002 38.44478888 -425.42961033 26.25527755 -414.50390625 14.8984375 C-413.95589355 14.32851074 -413.40788086 13.75858398 -412.84326172 13.17138672 C-405.45015112 5.53066985 -397.88001983 -1.53405644 -389.50390625 -8.1015625 C-388.33918634 -9.05359736 -387.17654558 -10.00817963 -386.015625 -10.96484375 C-377.52636804 -17.92855657 -368.80023153 -24.2599847 -359.50390625 -30.1015625 C-358.88418945 -30.49520996 -358.26447266 -30.88885742 -357.62597656 -31.29443359 C-337.9604106 -43.6803967 -316.49206467 -53.62253775 -294.50390625 -61.1015625 C-293.70001465 -61.37548828 -292.89612305 -61.64941406 -292.06787109 -61.93164062 C-274.31628287 -67.85954979 -255.94436498 -71.12128634 -237.50390625 -74.1015625 C-235.60125 -74.41480469 -235.60125 -74.41480469 -233.66015625 -74.734375 C-150.07293356 -85.98650113 -62.32138992 -55.65987475 0 0 Z " fill="#F97317" transform="translate(694.50390625,272.1015625)"/>
<path d="M0 0 C3.21453217 2.91527721 6.36713627 5.89174472 9.49609375 8.8984375 C10.22868408 9.59815674 10.22868408 9.59815674 10.97607422 10.31201172 C16.81715277 15.91764203 22.1813461 21.72397618 27.2109375 28.06640625 C28.74010793 29.961532 30.3169528 31.81911301 31.9375 33.63671875 C45.78846325 49.22163269 57.01415017 67.37028016 66.49609375 85.8984375 C66.93228027 86.74100098 67.3684668 87.58356445 67.81787109 88.45166016 C84.50298263 120.97609416 94.2251311 155.66355393 98.49609375 191.8984375 C98.59849365 192.74220947 98.70089355 193.58598145 98.80639648 194.45532227 C99.77350192 203.51205177 99.78157767 212.61207249 99.80859375 221.7109375 C99.81154449 222.58783234 99.81449524 223.46472717 99.8175354 224.36819458 C99.8300733 240.85515791 98.26780608 256.6319671 95.49609375 272.8984375 C95.22983482 274.58433079 94.96530689 276.27049911 94.703125 277.95703125 C87.2936833 324.24955956 66.39563649 369.15793355 37.49609375 405.8984375 C38.87695935 408.97101934 40.48112842 411.180735 42.78979492 413.62548828 C43.46197556 414.33947784 44.13415619 415.05346741 44.82670593 415.78909302 C47.93825237 419.03045443 51.06158757 422.25959077 54.20385742 425.47119141 C55.84755693 427.16295419 57.47770846 428.8679939 59.09350586 430.58642578 C69.52163326 442.5392889 69.52163326 442.5392889 83.78125 447.91015625 C86.01951554 447.91940852 88.25788228 447.91653807 90.49609375 447.8984375 C106.67441914 451.44608745 117.32710835 462.12228586 128.578125 473.44921875 C130.00476395 474.87315691 131.43199569 476.29650137 132.85978699 477.71928406 C135.83550745 480.68913912 138.8039547 483.66602545 141.76733398 486.64819336 C145.54733366 490.45100092 149.34504084 494.23553504 153.14839649 498.01496601 C156.0940721 500.94612149 159.03007345 503.88681915 161.96332359 506.83040428 C163.35930397 508.22903368 164.75820827 509.62475154 166.1601963 511.01735878 C180.15724813 524.9412166 180.15724813 524.9412166 184.49609375 533.8984375 C184.8046077 534.5154805 185.11312164 535.1325235 185.4309845 535.76826477 C191.6371514 549.13198855 191.00089426 563.61407033 186.0390625 577.203125 C180.45947317 591.15747364 170.11201776 601.64903599 156.49609375 607.8984375 C149.38270157 610.61324456 142.76830008 611.44799413 135.18359375 611.3984375 C134.17538574 611.39344238 133.16717773 611.38844727 132.12841797 611.38330078 C123.98182159 611.19323538 117.69617428 609.90441702 110.49609375 605.8984375 C109.73039063 605.48722656 108.9646875 605.07601562 108.17578125 604.65234375 C92.7804317 595.35443551 80.18206032 579.80269803 67.50195312 567.14453125 C64.78715189 564.43523671 62.06315983 561.73538111 59.33698654 559.03753662 C57.20231822 556.92167814 55.07456824 554.79895958 52.94852448 552.67443848 C51.94812501 551.67701608 50.9452866 550.68203235 49.93972015 549.68981934 C38.94089141 538.82691682 27.83050213 526.7980835 25.49609375 510.8984375 C25.49366165 509.93461151 25.49122955 508.97078552 25.48872375 507.97775269 C25.42537448 500.24230087 24.1108455 496.13576441 18.69169617 490.60623169 C17.471455 489.45536575 17.471455 489.45536575 16.2265625 488.28125 C14.9777404 487.04010941 14.9777404 487.04010941 13.70368958 485.77389526 C11.95149862 484.04408378 10.18494813 482.32870853 8.4050293 480.62744141 C5.67164342 478.01200284 2.98715863 475.35308888 0.30664062 472.68359375 C-1.40490338 471.00510736 -3.11900888 469.32922805 -4.8359375 467.65625 C-5.64335892 466.86066681 -6.45078033 466.06508362 -7.28266907 465.24539185 C-8.41855721 464.16703568 -8.41855721 464.16703568 -9.57739258 463.06689453 C-10.24055984 462.42881866 -10.90372711 461.7907428 -11.58699036 461.1333313 C-13.42741087 459.66295954 -13.42741087 459.66295954 -15.64146423 460.13261414 C-17.70326161 460.98041106 -19.22678653 461.9810552 -20.98828125 463.34765625 C-21.66334717 463.85893066 -22.33841309 464.37020508 -23.03393555 464.89697266 C-24.13282104 465.73301025 -24.13282104 465.73301025 -25.25390625 466.5859375 C-61.98898445 493.72956207 -106.23443756 511.32220521 -151.23339844 518.52832031 C-153.15359739 518.84133339 -155.067908 519.19015019 -156.98046875 519.546875 C-228.76361743 532.89737974 -307.75415999 511.51529636 -367.35180664 471.20751953 C-385.98428833 458.37289421 -405.29608427 443.34867489 -419.8203125 425.890625 C-421.8601108 423.47694256 -424.02802561 421.20194232 -426.19140625 418.8984375 C-453.18642989 389.24077876 -471.71719436 352.58427998 -484.50390625 314.8984375 C-484.85799561 313.87492187 -485.21208496 312.85140625 -485.5769043 311.796875 C-487.5857276 305.91857032 -489.30821145 300.10565273 -490.56640625 294.0234375 C-490.71400391 293.33636719 -490.86160156 292.64929688 -491.01367188 291.94140625 C-491.33092624 290.46088587 -491.64360454 288.97937962 -491.95239258 287.49707031 C-492.36547054 285.55072157 -492.79514874 283.60788321 -493.2331543 281.66699219 C-497.61271924 262.02761433 -498.78781861 242.27100858 -498.81640625 222.2109375 C-498.81990082 221.42904053 -498.82339539 220.64714355 -498.82699585 219.84155273 C-498.85544336 208.39873118 -497.96701121 197.24292373 -496.50390625 185.8984375 C-496.38893799 184.94606201 -496.27396973 183.99368652 -496.15551758 183.01245117 C-490.49543604 137.15018646 -473.36068569 91.56768659 -446.50390625 53.8984375 C-445.90835938 53.0425 -445.3128125 52.1865625 -444.69921875 51.3046875 C-435.58382002 38.44478888 -425.42961033 26.25527755 -414.50390625 14.8984375 C-413.95589355 14.32851074 -413.40788086 13.75858398 -412.84326172 13.17138672 C-405.45015112 5.53066985 -397.88001983 -1.53405644 -389.50390625 -8.1015625 C-388.33918634 -9.05359736 -387.17654558 -10.00817963 -386.015625 -10.96484375 C-377.52636804 -17.92855657 -368.80023153 -24.2599847 -359.50390625 -30.1015625 C-358.88418945 -30.49520996 -358.26447266 -30.88885742 -357.62597656 -31.29443359 C-337.9604106 -43.6803967 -316.49206467 -53.62253775 -294.50390625 -61.1015625 C-293.70001465 -61.37548828 -292.89612305 -61.64941406 -292.06787109 -61.93164062 C-274.31628287 -67.85954979 -255.94436498 -71.12128634 -237.50390625 -74.1015625 C-235.60125 -74.41480469 -235.60125 -74.41480469 -233.66015625 -74.734375 C-150.07293356 -85.98650113 -62.32138992 -55.65987475 0 0 Z M-231.62890625 -2.3515625 C-233.41107544 -2.11626831 -233.41107544 -2.11626831 -235.22924805 -1.8762207 C-243.56035296 -0.65407522 -251.45317328 1.46563411 -259.50390625 3.8984375 C-260.95126564 4.29461689 -262.40017937 4.68523133 -263.8515625 5.06640625 C-275.55109562 8.27731913 -286.48407448 12.85331848 -297.50390625 17.8984375 C-298.2299707 18.22714844 -298.95603516 18.55585938 -299.70410156 18.89453125 C-321.35417068 28.79992595 -340.41650951 43.46981966 -357.50390625 59.8984375 C-358.05079102 60.41809082 -358.59767578 60.93774414 -359.16113281 61.47314453 C-366.90439254 68.85493089 -373.82726419 76.57796595 -380.21289062 85.16308594 C-381.05397738 86.29365414 -381.90135139 87.41958046 -382.75585938 88.54003906 C-404.60753116 117.19655 -418.57552391 151.43635384 -424.50390625 186.8984375 C-424.6210498 187.59130859 -424.73819336 188.28417969 -424.85888672 188.99804688 C-429.99439004 221.38300391 -427.34766962 256.7254678 -417.50390625 287.8984375 C-417.22562988 288.78805176 -416.94735352 289.67766602 -416.66064453 290.59423828 C-406.70645742 321.89959147 -391.20499841 349.324243 -369.50390625 373.8984375 C-369.05402344 374.41148437 -368.60414063 374.92453125 -368.140625 375.453125 C-331.05608807 417.56063956 -275.80768242 446.29969206 -219.50390625 449.8984375 C-201.81501293 450.57843429 -184.04265033 450.4588381 -166.50390625 447.8984375 C-165.68615723 447.79080078 -164.8684082 447.68316406 -164.02587891 447.57226562 C-151.94124647 445.94349735 -140.48707994 442.86590421 -128.94140625 439.0234375 C-127.70535645 438.61287109 -126.46930664 438.20230469 -125.19580078 437.77929688 C-117.03993519 434.97773896 -109.25287675 431.67708302 -101.50390625 427.8984375 C-100.60389893 427.45983398 -99.7038916 427.02123047 -98.77661133 426.56933594 C-86.68036786 420.56998475 -75.3321462 413.9669902 -64.50390625 405.8984375 C-63.90529785 405.45532227 -63.30668945 405.01220703 -62.68994141 404.55566406 C-50.59736783 395.53155219 -39.1382548 385.54174214 -29.50390625 373.8984375 C-28.72273438 373.02832031 -27.9415625 372.15820312 -27.13671875 371.26171875 C-18.49806534 361.56243067 -11.45271123 350.84773396 -4.50390625 339.8984375 C-4.0951123 339.25793457 -3.68631836 338.61743164 -3.26513672 337.95751953 C7.66589861 320.59762881 15.64951137 300.33228501 20.55859375 280.4609375 C20.81535889 279.42686768 21.07212402 278.39279785 21.33666992 277.32739258 C25.56376138 259.80556824 27.69945374 242.1074073 27.62109375 224.0859375 C27.61698486 222.93665771 27.61287598 221.78737793 27.60864258 220.60327148 C27.55628705 212.65480212 27.42307903 204.80075758 26.49609375 196.8984375 C26.42052246 196.24020996 26.34495117 195.58198242 26.26708984 194.90380859 C21.26348306 153.4143911 4.07698959 113.11408505 -22.50390625 80.8984375 C-22.96764648 80.33318359 -23.43138672 79.76792969 -23.90917969 79.18554688 C-41.67872716 57.65317605 -62.33198278 39.91983366 -86.50390625 25.8984375 C-87.21853027 25.48352051 -87.9331543 25.06860352 -88.66943359 24.64111328 C-100.88591588 17.65604614 -113.55078681 12.46750728 -126.82421875 7.83544922 C-129.08071717 7.04641488 -131.32395766 6.23005082 -133.56640625 5.40234375 C-153.98109538 -1.65920281 -176.65826911 -4.33567841 -198.19140625 -4.4140625 C-198.88288757 -4.41668091 -199.5743689 -4.41929932 -200.2868042 -4.42199707 C-210.84119966 -4.42622596 -221.16819809 -3.74450968 -231.62890625 -2.3515625 Z " fill="#FEFEFE" transform="translate(694.50390625,272.1015625)"/>
<path d="M0 0 C3.54548413 0.01160713 7.09077726 -0.0115237 10.63620913 -0.02995718 C17.56617488 -0.06037003 24.49576295 -0.05848063 31.42576724 -0.04450635 C37.0622903 -0.03365536 42.6987053 -0.0342383 48.33523142 -0.04282606 C49.54213441 -0.04463824 49.54213441 -0.04463824 50.77341928 -0.04648703 C52.40836313 -0.04897788 54.04330695 -0.05148887 55.67825074 -0.05401977 C70.9823059 -0.07626134 86.28615029 -0.06106613 101.59018517 -0.03343346 C114.69757222 -0.01071986 127.80456871 -0.02239577 140.91192019 -0.05865896 C156.16256592 -0.10084774 171.41296971 -0.11987338 186.6636731 -0.10363442 C188.29264669 -0.10197491 189.92162031 -0.10035155 191.55059397 -0.09876478 C192.35190936 -0.09797984 193.15322475 -0.0971949 193.97882242 -0.09638617 C199.60253311 -0.09250846 205.22606452 -0.1051625 210.84973872 -0.12449491 C217.71203515 -0.14771176 224.57378818 -0.14585774 231.4360519 -0.11258177 C234.9317858 -0.09626815 238.42657984 -0.0907814 241.92228091 -0.11618078 C268.81112837 -0.26832891 268.81112837 -0.26832891 280.00982058 7.79900706 C280.76756242 8.32086179 281.52530427 8.84271653 282.30600798 9.38038504 C284.03815102 10.62259348 285.61181827 11.93894174 287.19732058 13.36150706 C287.72905886 13.80430003 288.26079714 14.247093 288.80864871 14.70330393 C292.81806428 18.17947227 295.35270373 21.74888966 296.47857058 26.97478831 C296.73984107 44.83915772 287.40639809 61.71641902 276.00982058 74.79900706 C274.97728152 76.03070628 274.97728152 76.03070628 273.92388308 77.28728831 C252.54788584 102.09733565 221.11279645 116.96012982 189.97759402 125.26531565 C188.13893864 125.76398819 186.31200717 126.30533944 184.48638308 126.84978831 C125.03021275 143.55168431 55.7825107 135.49922398 2.02886355 105.70086253 C-6.21228972 101.04791426 -13.82864109 96.02329708 -20.99017942 89.79900706 C-21.82033567 89.09002268 -22.65049192 88.38103831 -23.50580442 87.65056956 C-39.88827985 73.3284668 -53.58586221 54.88782852 -56.37689817 32.72869456 C-56.72573598 26.54263742 -56.18116001 22.4249981 -52.00580442 17.73260081 C-43.77478903 9.8365686 -43.77478903 9.8365686 -38.99017942 6.79900706 C-38.26560261 6.30180816 -37.54102581 5.80460927 -36.79449213 5.29234374 C-25.38818427 -1.24468869 -12.75944702 -0.06540862 0 0 Z " fill="#FEFEFE" transform="translate(374.9901794195175,376.2009929418564)"/>
<path d="M0 0 C3.88963859 1.52431783 5.72189877 3.86029373 8.25 7.125 C38.66924274 45.08742611 89.32255978 64.30902574 136 72 C136.88494141 72.15098145 137.76988281 72.30196289 138.68164062 72.45751953 C154.05278316 74.96792283 169.33776641 75.2888753 184.875 75.3125 C186.2949678 75.31787781 186.2949678 75.31787781 187.74362183 75.32336426 C205.2071275 75.35893572 222.44451708 74.3335738 239.5625 70.6875 C240.61203857 70.4694873 241.66157715 70.25147461 242.74291992 70.02685547 C287.73711458 60.50720762 340.21995581 41.17006628 367 1 C368.32 1 369.64 1 371 1 C371.11735711 15.08305369 371.20490874 29.16603039 371.25906086 43.24947453 C371.2850621 49.79026916 371.32028678 56.33073337 371.37719727 62.87133789 C371.431855 69.19319812 371.46149163 75.51474216 371.47438622 81.8368206 C371.4835657 84.23876351 371.5014898 86.64069075 371.52865028 89.04249763 C371.73556867 108.11315419 370.5504345 123.61828423 356.9375 138.2109375 C349.05416295 145.78457202 339.68415592 150.11258525 328.71186543 150.13422108 C327.6595751 150.13867892 326.60728478 150.14313676 325.52310687 150.14772969 C324.37331684 150.14754533 323.22352681 150.14736097 322.03889465 150.14717102 C320.81252893 150.15084771 319.5861632 150.1545244 318.32263488 150.1583125 C314.92135054 150.16742285 311.52011439 150.17204539 308.11882246 150.17470181 C304.44928388 150.17861194 300.77975918 150.18818967 297.11022949 150.19691467 C288.25049471 150.21665756 279.39075883 150.22674185 270.53100756 150.23564246 C266.3567426 150.24002833 262.18247891 150.24539431 258.00821495 150.25063133 C244.12910761 150.2676403 230.25000105 150.28213449 216.3708849 150.28938007 C212.77093823 150.2912899 209.17099157 150.29321024 205.57104492 150.29516602 C204.67632049 150.29564976 203.78159605 150.2961335 202.85975876 150.2966319 C188.36560719 150.30493236 173.87153814 150.33027102 159.37742261 150.36274669 C144.49043101 150.39583028 129.60348133 150.41382995 114.71645278 150.41702431 C106.36039877 150.41918804 98.00446517 150.4279168 89.64844704 150.45348549 C82.53237148 150.47521013 75.41644559 150.4832342 68.30034063 150.47351871 C64.67169752 150.46897928 61.0433631 150.47083905 57.4147625 150.49028015 C53.47505547 150.51120523 49.53577173 150.50090963 45.59602356 150.48774719 C43.88806892 150.50420106 43.88806892 150.50420106 42.14561015 150.52098733 C29.4225565 150.41850711 20.87500583 145.56476188 11.8359375 136.93359375 C2.07293282 126.71351957 -1.31955256 114.82128718 -1.24291992 101.03173828 C-1.24481827 99.94967606 -1.24671661 98.86761383 -1.24867249 97.75276184 C-1.25236434 94.19187069 -1.24170196 90.63118538 -1.23046875 87.0703125 C-1.22927637 84.59406559 -1.22882391 82.11781823 -1.2290802 79.64157104 C-1.2275183 74.46186477 -1.21924812 69.28222789 -1.20581055 64.10253906 C-1.18876784 57.4474124 -1.18499787 50.7923952 -1.18575573 44.13725471 C-1.18548458 39.02966583 -1.18001311 33.92209368 -1.17275429 28.81451035 C-1.16956281 26.35918174 -1.1675991 23.90385123 -1.16686058 21.44852066 C-1.1647051 18.02961197 -1.15597969 14.61078567 -1.14526367 11.19189453 C-1.14571686 10.16855515 -1.14617004 9.14521576 -1.14663696 8.09086609 C-1.14237198 7.16563644 -1.13810699 6.2404068 -1.13371277 5.28713989 C-1.13203692 4.47860125 -1.13036108 3.6700626 -1.12863445 2.83702278 C-1 1 -1 1 0 0 Z " fill="#FEFEFE" transform="translate(310,463)"/>
<path d="M0 0 C1.37656072 -0.00338457 2.75311848 -0.00825062 4.12966919 -0.01449585 C6.99217636 -0.02179558 9.8538945 -0.01139338 12.71630859 0.01220703 C16.33632182 0.0406423 19.95449339 0.02382837 23.57444286 -0.00500393 C46.90324808 -0.16276528 65.26423655 1.94356533 83.1328125 18.50390625 C94.07138585 29.96040447 100.1953125 43.95152283 100.1953125 59.6640625 C88.3153125 59.6640625 76.4353125 59.6640625 64.1953125 59.6640625 C62.8753125 56.0340625 61.5553125 52.4040625 60.1953125 48.6640625 C56.49717738 42.79055379 51.58976339 40.01479449 45.1953125 37.6640625 C41.08123658 37.01199335 37.06492129 37.00733222 32.90625 37.0703125 C31.76298248 37.07027222 30.61971497 37.07023193 29.44180298 37.07019043 C27.03992169 37.07552188 24.63803943 37.09300172 22.23632812 37.12207031 C18.57367332 37.164024 14.91285542 37.16312215 11.25 37.15625 C8.90623731 37.16674084 6.56248402 37.17967837 4.21875 37.1953125 C2.58877579 37.19561462 2.58877579 37.19561462 0.9258728 37.19592285 C-7.18858947 37.32149558 -14.13379521 38.40854486 -20.421875 44.078125 C-24.48275374 48.735517 -26.60295728 53.65541138 -27.8046875 59.6640625 C-39.6846875 59.6640625 -51.5646875 59.6640625 -63.8046875 59.6640625 C-63.8046875 42.70251516 -56.71129915 28.71048521 -44.8671875 16.69921875 C-32.14496292 4.97733037 -17.14845266 -0.13586386 0 0 Z " fill="#FEFEFD" transform="translate(476.8046875,299.3359375)"/>
</svg>
